<svg xmlns="http://www.w3.org/2000/svg" xmlns:xlink="http://www.w3.org/1999/xlink" preserveAspectRatio="xMidYMid" width="64" height="64" viewBox="0 0 64 64">
  <defs>
    <style>

      .cls-2 {
        fill: #c2c5e3;
      }
    </style>
  </defs>
  <path d="M60.000,64.000 C60.000,64.000 4.000,64.000 4.000,64.000 C1.791,64.000 0.000,62.209 0.000,60.000 C0.000,60.000 0.000,4.000 0.000,4.000 C0.000,1.791 1.791,0.000 4.000,0.000 C4.000,0.000 60.000,0.000 60.000,0.000 C62.209,0.000 64.000,1.791 64.000,4.000 C64.000,4.000 64.000,60.000 64.000,60.000 C64.000,62.209 62.209,64.000 60.000,64.000 ZM62.000,4.000 C62.000,2.895 61.105,2.000 60.000,2.000 C60.000,2.000 4.000,2.000 4.000,2.000 C2.895,2.000 2.000,2.895 2.000,4.000 C2.000,4.000 2.000,60.000 2.000,60.000 C2.000,61.105 2.895,62.000 4.000,62.000 C4.000,62.000 60.000,62.000 60.000,62.000 C61.105,62.000 62.000,61.105 62.000,60.000 C62.000,60.000 62.000,4.000 62.000,4.000 ZM2.000,56.000 C2.000,56.000 62.000,56.000 62.000,56.000 C62.000,56.000 62.000,58.000 62.000,58.000 C62.000,58.000 2.000,58.000 2.000,58.000 C2.000,58.000 2.000,56.000 2.000,56.000 ZM41.000,10.000 C41.000,10.000 23.000,10.000 23.000,10.000 C23.000,10.000 21.000,10.000 21.000,10.000 C21.000,10.000 21.000,8.000 21.000,8.000 C21.000,8.000 21.000,2.000 21.000,2.000 C21.000,2.000 23.000,2.000 23.000,2.000 C23.000,2.000 23.000,8.000 23.000,8.000 C23.000,8.000 41.000,8.000 41.000,8.000 C41.000,8.000 41.000,2.000 41.000,2.000 C41.000,2.000 43.000,2.000 43.000,2.000 C43.000,2.000 43.000,8.000 43.000,8.000 C43.000,8.000 62.000,8.000 62.000,8.000 C62.000,8.000 62.000,10.000 62.000,10.000 C62.000,10.000 43.000,10.000 43.000,10.000 C43.000,10.000 41.000,10.000 41.000,10.000 ZM12.000,20.000 C12.000,20.000 24.000,20.000 24.000,20.000 C24.000,20.000 24.000,22.000 24.000,22.000 C24.000,22.000 12.000,22.000 12.000,22.000 C12.000,22.000 12.000,20.000 12.000,20.000 ZM12.000,26.000 C12.000,26.000 19.000,26.000 19.000,26.000 C19.000,26.000 19.000,28.000 19.000,28.000 C19.000,28.000 12.000,28.000 12.000,28.000 C12.000,28.000 12.000,26.000 12.000,26.000 ZM12.000,32.000 C12.000,32.000 24.000,32.000 24.000,32.000 C24.000,32.000 24.000,34.000 24.000,34.000 C24.000,34.000 12.000,34.000 12.000,34.000 C12.000,34.000 12.000,32.000 12.000,32.000 ZM12.000,38.000 C12.000,38.000 19.000,38.000 19.000,38.000 C19.000,38.000 19.000,40.000 19.000,40.000 C19.000,40.000 12.000,40.000 12.000,40.000 C12.000,40.000 12.000,38.000 12.000,38.000 ZM12.000,44.000 C12.000,44.000 24.000,44.000 24.000,44.000 C24.000,44.000 24.000,46.000 24.000,46.000 C24.000,46.000 12.000,46.000 12.000,46.000 C12.000,46.000 12.000,44.000 12.000,44.000 ZM23.000,38.000 C23.000,38.000 32.000,38.000 32.000,38.000 C32.000,38.000 32.000,40.000 32.000,40.000 C32.000,40.000 23.000,40.000 23.000,40.000 C23.000,40.000 23.000,38.000 23.000,38.000 ZM28.000,44.000 C28.000,44.000 36.000,44.000 36.000,44.000 C36.000,44.000 36.000,46.000 36.000,46.000 C36.000,46.000 28.000,46.000 28.000,46.000 C28.000,46.000 28.000,44.000 28.000,44.000 ZM40.000,34.000 C40.000,34.000 40.000,32.000 40.000,32.000 C40.000,32.000 48.000,32.000 48.000,32.000 C48.000,32.000 48.000,34.000 48.000,34.000 C48.000,34.000 40.000,34.000 40.000,34.000 ZM36.000,34.000 C36.000,34.000 28.000,34.000 28.000,34.000 C28.000,34.000 28.000,32.000 28.000,32.000 C28.000,32.000 36.000,32.000 36.000,32.000 C36.000,32.000 36.000,34.000 36.000,34.000 ZM32.000,28.000 C32.000,28.000 23.000,28.000 23.000,28.000 C23.000,28.000 23.000,26.000 23.000,26.000 C23.000,26.000 32.000,26.000 32.000,26.000 C32.000,26.000 32.000,28.000 32.000,28.000 ZM36.000,22.000 C36.000,22.000 28.000,22.000 28.000,22.000 C28.000,22.000 28.000,20.000 28.000,20.000 C28.000,20.000 36.000,20.000 36.000,20.000 C36.000,20.000 36.000,22.000 36.000,22.000 ZM48.000,20.000 C48.000,20.000 48.000,22.000 48.000,22.000 C48.000,22.000 40.000,22.000 40.000,22.000 C40.000,22.000 40.000,20.000 40.000,20.000 C40.000,20.000 48.000,20.000 48.000,20.000 ZM52.000,28.000 C52.000,28.000 36.000,28.000 36.000,28.000 C36.000,28.000 36.000,26.000 36.000,26.000 C36.000,26.000 52.000,26.000 52.000,26.000 C52.000,26.000 52.000,28.000 52.000,28.000 ZM40.000,46.000 C40.000,46.000 40.000,44.000 40.000,44.000 C40.000,44.000 48.000,44.000 48.000,44.000 C48.000,44.000 48.000,46.000 48.000,46.000 C48.000,46.000 40.000,46.000 40.000,46.000 ZM36.000,38.000 C36.000,38.000 52.000,38.000 52.000,38.000 C52.000,38.000 52.000,40.000 52.000,40.000 C52.000,40.000 36.000,40.000 36.000,40.000 C36.000,40.000 36.000,38.000 36.000,38.000 Z" id="path-1" class="cls-2" fill-rule="evenodd"/>
</svg>
