<svg xmlns="http://www.w3.org/2000/svg" xmlns:xlink="http://www.w3.org/1999/xlink" preserveAspectRatio="xMidYMid" width="20" height="20" viewBox="0 0 20 20">
  <defs>
    <style>

      .cls-2 {
        fill: #2a328c;
      }
    </style>
  </defs>
  <path d="M17.000,20.000 C17.000,20.000 3.000,20.000 3.000,20.000 C1.343,20.000 0.000,18.657 0.000,17.000 C0.000,17.000 0.000,3.000 0.000,3.000 C0.000,1.343 1.343,0.000 3.000,0.000 C3.000,0.000 17.000,0.000 17.000,0.000 C18.657,0.000 20.000,1.343 20.000,3.000 C20.000,3.000 20.000,17.000 20.000,17.000 C20.000,18.657 18.657,20.000 17.000,20.000 ZM12.000,2.000 C12.000,2.000 12.000,2.000 12.000,2.000 C10.674,2.000 9.283,2.000 8.000,2.000 C8.000,2.000 8.000,4.000 8.000,4.000 C8.000,4.000 12.000,4.000 12.000,4.000 C12.000,4.000 12.000,2.000 12.000,2.000 ZM17.000,2.000 C16.290,2.000 15.222,2.000 14.000,2.000 C14.000,2.000 14.000,2.000 14.000,2.000 C14.000,2.000 14.000,4.000 14.000,4.000 C14.000,4.000 18.000,4.000 18.000,4.000 C18.000,4.000 18.000,3.000 18.000,3.000 C18.000,3.000 18.030,2.000 17.000,2.000 ZM18.000,13.000 C18.000,13.000 18.000,13.000 18.000,13.000 C18.000,13.000 18.000,6.000 18.000,6.000 C18.000,6.000 6.000,6.000 6.000,6.000 C6.000,6.000 6.000,2.000 6.000,2.000 C4.238,2.000 3.000,2.000 3.000,2.000 C3.000,2.000 2.000,1.971 2.000,3.000 C2.000,5.077 2.000,10.544 2.000,14.000 C2.000,14.000 2.000,14.000 2.000,14.000 C2.000,14.000 2.000,16.000 2.000,16.000 C2.000,16.000 2.000,16.000 2.000,16.000 C2.000,16.625 2.000,17.000 2.000,17.000 C2.000,17.552 2.448,18.000 3.000,18.000 C3.000,18.000 17.000,18.000 17.000,18.000 C17.552,18.000 18.000,17.552 18.000,17.000 C18.000,17.000 18.000,17.000 18.000,17.000 C18.000,17.000 18.000,17.000 18.000,17.000 C18.000,17.000 18.000,13.000 18.000,13.000 ZM15.000,15.000 C15.000,15.000 13.000,15.000 13.000,15.000 C12.448,15.000 12.000,14.552 12.000,14.000 C12.000,13.448 12.448,13.000 13.000,13.000 C13.000,13.000 15.000,13.000 15.000,13.000 C15.552,13.000 16.000,13.448 16.000,14.000 C16.000,14.552 15.552,15.000 15.000,15.000 ZM15.000,11.000 C15.000,11.000 11.000,11.000 11.000,11.000 C10.448,11.000 10.000,10.552 10.000,10.000 C10.000,9.448 10.448,9.000 11.000,9.000 C11.000,9.000 15.000,9.000 15.000,9.000 C15.552,9.000 16.000,9.448 16.000,10.000 C16.000,10.552 15.552,11.000 15.000,11.000 ZM9.000,15.000 C9.000,15.000 5.000,15.000 5.000,15.000 C4.448,15.000 4.000,14.552 4.000,14.000 C4.000,13.448 4.448,13.000 5.000,13.000 C5.000,13.000 9.000,13.000 9.000,13.000 C9.552,13.000 10.000,13.448 10.000,14.000 C10.000,14.552 9.552,15.000 9.000,15.000 ZM7.000,11.000 C7.000,11.000 5.000,11.000 5.000,11.000 C4.448,11.000 4.000,10.552 4.000,10.000 C4.000,9.448 4.448,9.000 5.000,9.000 C5.000,9.000 7.000,9.000 7.000,9.000 C7.552,9.000 8.000,9.448 8.000,10.000 C8.000,10.552 7.552,11.000 7.000,11.000 Z" id="path-1" class="cls-2" fill-rule="evenodd"/>
</svg>
